<?xml version="1.0" encoding="UTF-8" standalone="no"?>
<!DOCTYPE svg PUBLIC "-//W3C//DTD SVG 1.1//EN"
 "http://www.w3.org/Graphics/SVG/1.1/DTD/svg11.dtd">
<!-- Generated by graphviz version 13.0.1 (20250615.1724)
 -->
<!-- Title: document_processor.HybridDocumentProcessor._generate_fallback_summary Pages: 1 -->
<!--zoomable 152 -->

<svg id="main" version="1.1" xmlns="http://www.w3.org/2000/svg" xmlns:xlink="http://www.w3.org/1999/xlink" xml:space="preserve" onload="init(evt)">

<style type="text/css"><![CDATA[
.node, .edge {opacity: 0.7;}
.node.selected, .edge.selected {opacity: 1;}
.edge:hover path { stroke: red; }
.edge:hover polygon { stroke: red; fill: red; }
]]></style>

<defs>
  <circle id="rim" cx="0" cy="0" r="7"/>
  <circle id="rim2" cx="0" cy="0" r="3.5"/>
  <g id="zoomPlus">
    <use xlink:href="#rim" fill="#404040"><set attributeName="fill" to="#808080" begin="zoomplus.mouseover" end="zoomplus.mouseout"/></use>
    <path d="M-4,0h8M0,-4v8" fill="none" stroke="white" stroke-width="1.5" pointer-events="none"/>
  </g>
  <g id="zoomMin">
    <use xlink:href="#rim" fill="#404040"><set attributeName="fill" to="#808080" begin="zoomminus.mouseover" end="zoomminus.mouseout"/></use>
    <path d="M-4,0h8" fill="none" stroke="white" stroke-width="1.5" pointer-events="none"/>
  </g>
  <g id="arrowUp" transform="translate(30 24)">
    <use xlink:href="#rim"/>
    <path pointer-events="none" fill="none" stroke="white" stroke-width="1.5" d="M0,-3.0v7 M-2.5,-0.5L0,-3.0L2.5,-0.5"/>
  </g>
  <g id="arrowRight" transform="rotate(90) translate(36 -43)">
    <use xlink:href="#rim"/>
    <path pointer-events="none" fill="none" stroke="white" stroke-width="1.5" d="M0,-3.0v7 M-2.5,-0.5L0,-3.0L2.5,-0.5"/>
  </g>
  <g id="arrowDown" transform="rotate(180) translate(-30 -48)">
    <use xlink:href="#rim"/>
    <path pointer-events="none" fill="none" stroke="white" stroke-width="1.5" d="M0,-3.0v7 M-2.5,-0.5L0,-3.0L2.5,-0.5"/>
  </g>
  <g id="arrowLeft" transform="rotate(270) translate(-36 17)">
    <use xlink:href="#rim"/>
    <path pointer-events="none" fill="none" stroke="white" stroke-width="1.5" d="M0,-3.0v7 M-2.5,-0.5L0,-3.0L2.5,-0.5"/>
  </g>
  <g id="resetDef">
    <use xlink:href="#rim2" fill="#404040"><set attributeName="fill" to="#808080" begin="reset.mouseover" end="reset.mouseout"/></use>
  </g>
</defs>
<script type="application/ecmascript">
var viewWidth = 698;
var viewHeight = 152;
var sectionId = 'dynsection-0';
</script>
<script type="application/ecmascript" xlink:href="svg.min.js"/>
<svg id="graph" class="graph">
<g id="viewport">
<title>document_processor.HybridDocumentProcessor._generate_fallback_summary</title>
<!-- Node1 -->
<g id="Node000001" class="node">
<title>Node1</title>
<g id="a_Node000001"><a xlink:title="Gera resumo básico quando o Groq falha ou não está disponível.">
<polygon fill="#999999" stroke="#666666" points="690.25,-94 539.25,-94 539.25,-50 690.25,-50 690.25,-94"/>
<text xml:space="preserve" text-anchor="start" x="547.25" y="-80.5" font-family="Helvetica,sans-Serif" font-size="10.00">document_processor.Hybrid</text>
<text xml:space="preserve" text-anchor="start" x="547.25" y="-68.5" font-family="Helvetica,sans-Serif" font-size="10.00">DocumentProcessor._generate</text>
<text xml:space="preserve" text-anchor="middle" x="614.75" y="-56.5" font-family="Helvetica,sans-Serif" font-size="10.00">_fallback_summary</text>
</a>
</g>
</g>
<!-- Node2 -->
<g id="Node000002" class="node">
<title>Node2</title>
<g id="a_Node000002"><a xlink:href="classdocument__processor_1_1_hybrid_document_processor.html#a699cc06046cbda8e6a079960e3f35d08" target="_top" xlink:title="Extrai texto completo de um arquivo PDF.">
<polygon fill="white" stroke="#666666" points="503.25,-144 365,-144 365,-100 503.25,-100 503.25,-144"/>
<text xml:space="preserve" text-anchor="start" x="373" y="-130.5" font-family="Helvetica,sans-Serif" font-size="10.00">document_processor.Hybrid</text>
<text xml:space="preserve" text-anchor="start" x="373" y="-118.5" font-family="Helvetica,sans-Serif" font-size="10.00">DocumentProcessor.extract</text>
<text xml:space="preserve" text-anchor="middle" x="434.12" y="-106.5" font-family="Helvetica,sans-Serif" font-size="10.00">_text_from_pdf</text>
</a>
</g>
</g>
<!-- Node1&#45;&gt;Node2 -->
<g id="edge1_Node000001_Node000002" class="edge">
<title>Node1&#45;&gt;Node2</title>
<g id="a_edge1_Node000001_Node000002"><a xlink:title=" ">
<path fill="none" stroke="#63b8ff" d="M527.78,-96.06C519.68,-98.33 511.55,-100.61 503.65,-102.82"/>
<polygon fill="#63b8ff" stroke="#63b8ff" points="528.63,-99.46 537.32,-93.4 526.74,-92.72 528.63,-99.46"/>
</a>
</g>
</g>
<!-- Node4 -->
<g id="Node000004" class="node">
<title>Node4</title>
<g id="a_Node000004"><a xlink:href="classdocument__processor_1_1_hybrid_document_processor.html#aa270b12f462b4526db040aaef0b00a13" target="_top" xlink:title="Pipeline completo de processamento híbrido: extração, resumo, chunking e indexação.">
<polygon fill="white" stroke="#666666" points="142.75,-94 0,-94 0,-50 142.75,-50 142.75,-94"/>
<text xml:space="preserve" text-anchor="start" x="8" y="-80.5" font-family="Helvetica,sans-Serif" font-size="10.00">document_processor.Hybrid</text>
<text xml:space="preserve" text-anchor="start" x="8" y="-68.5" font-family="Helvetica,sans-Serif" font-size="10.00">DocumentProcessor.process</text>
<text xml:space="preserve" text-anchor="middle" x="71.38" y="-56.5" font-family="Helvetica,sans-Serif" font-size="10.00">_pdf_hybrid</text>
</a>
</g>
</g>
<!-- Node1&#45;&gt;Node4 -->
<g id="edge6_Node000001_Node000004" class="edge">
<title>Node1&#45;&gt;Node4</title>
<g id="a_edge6_Node000001_Node000004"><a xlink:title=" ">
<path fill="none" stroke="#63b8ff" d="M527.42,-72C420.96,-72 242.01,-72 143.22,-72"/>
<polygon fill="#63b8ff" stroke="#63b8ff" points="527.25,-75.5 537.24,-72 527.24,-68.5 527.25,-75.5"/>
</a>
</g>
</g>
<!-- Node5 -->
<g id="Node000005" class="node">
<title>Node5</title>
<g id="a_Node000005"><a xlink:href="classdocument__processor_1_1_hybrid_document_processor.html#aad81b704a84a0ce339a2560228700c77" target="_top" xlink:title="Gera resumo do documento usando Groq LLM com fallback robusto.">
<polygon fill="white" stroke="#666666" points="326.75,-44 181,-44 181,0 326.75,0 326.75,-44"/>
<text xml:space="preserve" text-anchor="start" x="189" y="-30.5" font-family="Helvetica,sans-Serif" font-size="10.00">document_processor.Hybrid</text>
<text xml:space="preserve" text-anchor="start" x="189" y="-18.5" font-family="Helvetica,sans-Serif" font-size="10.00">DocumentProcessor.generate</text>
<text xml:space="preserve" text-anchor="middle" x="253.88" y="-6.5" font-family="Helvetica,sans-Serif" font-size="10.00">_document_summary</text>
</a>
</g>
</g>
<!-- Node1&#45;&gt;Node5 -->
<g id="edge4_Node000001_Node000005" class="edge">
<title>Node1&#45;&gt;Node5</title>
<g id="a_edge4_Node000001_Node000005"><a xlink:title=" ">
<path fill="none" stroke="#63b8ff" d="M527.76,-60.02C466.48,-51.48 385.04,-40.14 327.12,-32.07"/>
<polygon fill="#63b8ff" stroke="#63b8ff" points="527.07,-63.46 537.46,-61.37 528.03,-56.52 527.07,-63.46"/>
</a>
</g>
</g>
<!-- Node3 -->
<g id="Node000003" class="node">
<title>Node3</title>
<g id="a_Node000003"><a xlink:href="classdocument__processor_1_1_hybrid_document_processor.html#a1d7a46a2add4076b7c6be452a5c37649" target="_top" xlink:title="Inserção otimizada no Pinecone com controle de qualidade.">
<polygon fill="white" stroke="#666666" points="329,-144 178.75,-144 178.75,-100 329,-100 329,-144"/>
<text xml:space="preserve" text-anchor="start" x="186.75" y="-130.5" font-family="Helvetica,sans-Serif" font-size="10.00">document_processor.Hybrid</text>
<text xml:space="preserve" text-anchor="start" x="186.75" y="-118.5" font-family="Helvetica,sans-Serif" font-size="10.00">DocumentProcessor.optimized</text>
<text xml:space="preserve" text-anchor="middle" x="253.88" y="-106.5" font-family="Helvetica,sans-Serif" font-size="10.00">_pinecone_insert</text>
</a>
</g>
</g>
<!-- Node2&#45;&gt;Node3 -->
<g id="edge2_Node000002_Node000003" class="edge">
<title>Node2&#45;&gt;Node3</title>
<g id="a_edge2_Node000002_Node000003"><a xlink:title=" ">
<path fill="none" stroke="#63b8ff" d="M353.46,-122C345.43,-122 337.3,-122 329.32,-122"/>
<polygon fill="#63b8ff" stroke="#63b8ff" points="353.21,-125.5 363.21,-122 353.21,-118.5 353.21,-125.5"/>
</a>
</g>
</g>
<!-- Node3&#45;&gt;Node4 -->
<g id="edge3_Node000003_Node000004" class="edge">
<title>Node3&#45;&gt;Node4</title>
<g id="a_edge3_Node000003_Node000004"><a xlink:title=" ">
<path fill="none" stroke="#63b8ff" d="M167.41,-98.33C159.3,-96.08 151.13,-93.82 143.18,-91.61"/>
<polygon fill="#63b8ff" stroke="#63b8ff" points="166.39,-101.67 176.96,-100.97 168.26,-94.93 166.39,-101.67"/>
</a>
</g>
</g>
<!-- Node5&#45;&gt;Node4 -->
<g id="edge5_Node000005_Node000004" class="edge">
<title>Node5&#45;&gt;Node4</title>
<g id="a_edge5_Node000005_Node000004"><a xlink:title=" ">
<path fill="none" stroke="#63b8ff" d="M169.93,-44.98C161,-47.45 151.97,-49.95 143.2,-52.38"/>
<polygon fill="#63b8ff" stroke="#63b8ff" points="170.6,-48.42 179.3,-42.38 168.73,-41.68 170.6,-48.42"/>
</a>
</g>
</g>
</g>
</svg>

<g id="navigator" transform="translate(0 0)" fill="#404254">
  <rect fill="#f2f5e9" fill-opacity="0.5" stroke="#606060" stroke-width=".5" x="0" y="0" width="60" height="60"/>
  <use id="zoomplus" xlink:href="#zoomPlus" x="17" y="9" onmousedown="handleZoom(evt,'in')"/>
  <use id="zoomminus" xlink:href="#zoomMin" x="42" y="9" onmousedown="handleZoom(evt,'out')"/>
  <use id="reset" xlink:href="#resetDef" x="30" y="36" onmousedown="handleReset()"/>
   <use id="arrowup" xlink:href="#arrowUp" x="0" y="0" onmousedown="handlePan(0,-1)"/>
  <use id="arrowright" xlink:href="#arrowRight" x="0" y="0" onmousedown="handlePan(1,0)"/>
  <use id="arrowdown" xlink:href="#arrowDown" x="0" y="0" onmousedown="handlePan(0,1)"/>
  <use id="arrowleft" xlink:href="#arrowLeft" x="0" y="0" onmousedown="handlePan(-1,0)"/>
</g>
<svg viewBox="0 0 15 15" width="100%" height="30px" preserveAspectRatio="xMaxYMin meet">
 <g id="arrow_out" transform="scale(0.3 0.3)">
  <a xlink:href="classdocument__processor_1_1_hybrid_document_processor_a39c112b3645e39dfd9a108574401c542_icgraph_org.svg" target="_base">
   <rect id="button" ry="5" rx="5" y="6" x="6" height="38" width="38"
        fill="#f2f5e9" fill-opacity="0.5" stroke="#606060" stroke-width="1.0"/>
   <path id="arrow"
     d="M 11.500037,31.436501 C 11.940474,20.09759 22.043105,11.32322 32.158766,21.979434 L 37.068811,17.246167 C 37.068811,17.246167 37.088388,32 37.088388,32 L 22.160133,31.978069 C 22.160133,31.978069 26.997745,27.140456 26.997745,27.140456 C 18.528582,18.264221 13.291696,25.230495 11.500037,31.436501 z"
     style="fill:#404040;"/>
  </a>
 </g>
</svg>

<style type='text/css'>
<![CDATA[
[data-mouse-over-selected='false'] { opacity: 0.7; }
[data-mouse-over-selected='true']  { opacity: 1.0; }
]]>
</style>
<script type="application/ecmascript"><![CDATA[
document.addEventListener('DOMContentLoaded', (event) => {
  highlightEdges();
  highlightAdjacentNodes();
});
]]></script>
</svg>
