<?xml version="1.0" encoding="UTF-8" standalone="no"?>
<!DOCTYPE svg PUBLIC "-//W3C//DTD SVG 1.1//EN"
 "http://www.w3.org/Graphics/SVG/1.1/DTD/svg11.dtd">
<!-- Generated by graphviz version 13.0.1 (20250615.1724)
 -->
<!-- Title: document_processor.HybridDocumentProcessor.process_pdf_hybrid Pages: 1 -->
<svg width="706pt" height="245pt"
 viewBox="0.00 0.00 706.00 245.00" xmlns="http://www.w3.org/2000/svg" xmlns:xlink="http://www.w3.org/1999/xlink">
<g id="graph0" class="graph" transform="scale(1 1) rotate(0) translate(4 240.9)">
<title>document_processor.HybridDocumentProcessor.process_pdf_hybrid</title>
<!-- Node1 -->
<g id="Node000001" class="node">
<title>Node1</title>
<g id="a_Node000001"><a xlink:title="Pipeline completo de processamento híbrido: extração, resumo, chunking e indexação.">
<polygon fill="#999999" stroke="#666666" points="142.75,-153 0,-153 0,-109 142.75,-109 142.75,-153"/>
<text xml:space="preserve" text-anchor="start" x="8" y="-139.5" font-family="Helvetica,sans-Serif" font-size="10.00">document_processor.Hybrid</text>
<text xml:space="preserve" text-anchor="start" x="8" y="-127.5" font-family="Helvetica,sans-Serif" font-size="10.00">DocumentProcessor.process</text>
<text xml:space="preserve" text-anchor="middle" x="71.38" y="-115.5" font-family="Helvetica,sans-Serif" font-size="10.00">_pdf_hybrid</text>
</a>
</g>
</g>
<!-- Node2 -->
<g id="Node000002" class="node">
<title>Node2</title>
<g id="a_Node000002"><a xlink:href="classdocument__processor_1_1_hybrid_document_processor.html#a39c112b3645e39dfd9a108574401c542" target="_top" xlink:title="Gera resumo básico quando o Groq falha ou não está disponível.">
<polygon fill="white" stroke="#666666" points="697.75,-106 546.75,-106 546.75,-62 697.75,-62 697.75,-106"/>
<text xml:space="preserve" text-anchor="start" x="554.75" y="-92.5" font-family="Helvetica,sans-Serif" font-size="10.00">document_processor.Hybrid</text>
<text xml:space="preserve" text-anchor="start" x="554.75" y="-80.5" font-family="Helvetica,sans-Serif" font-size="10.00">DocumentProcessor._generate</text>
<text xml:space="preserve" text-anchor="middle" x="622.25" y="-68.5" font-family="Helvetica,sans-Serif" font-size="10.00">_fallback_summary</text>
</a>
</g>
</g>
<!-- Node1&#45;&gt;Node2 -->
<g id="edge1_Node000001_Node000002" class="edge">
<title>Node1&#45;&gt;Node2</title>
<g id="a_edge1_Node000001_Node000002"><a xlink:title=" ">
<path fill="none" stroke="#63b8ff" d="M89.47,-153.34C108.43,-176.08 141.32,-209.94 178.75,-224 241.27,-247.47 262.76,-232.43 329,-224 411.77,-213.47 436.6,-215.26 510.75,-177 541.69,-161.03 571.58,-135.02 592.45,-114.57"/>
<polygon fill="#63b8ff" stroke="#63b8ff" points="594.88,-117.08 599.48,-107.54 589.93,-112.14 594.88,-117.08"/>
</a>
</g>
</g>
<!-- Node3 -->
<g id="Node000003" class="node">
<title>Node3</title>
<g id="a_Node000003"><a xlink:href="classdocument__processor_1_1_hybrid_document_processor.html#a05f074e51c818fcc4498e8e5551489b5" target="_top" xlink:title="Gera embeddings em lote otimizado para alta performance.">
<polygon fill="white" stroke="#666666" points="323,-215 184.75,-215 184.75,-171 323,-171 323,-215"/>
<text xml:space="preserve" text-anchor="start" x="192.75" y="-201.5" font-family="Helvetica,sans-Serif" font-size="10.00">document_processor.Hybrid</text>
<text xml:space="preserve" text-anchor="start" x="192.75" y="-189.5" font-family="Helvetica,sans-Serif" font-size="10.00">DocumentProcessor.batch</text>
<text xml:space="preserve" text-anchor="middle" x="253.88" y="-177.5" font-family="Helvetica,sans-Serif" font-size="10.00">_generate_embeddings</text>
</a>
</g>
</g>
<!-- Node1&#45;&gt;Node3 -->
<g id="edge2_Node000001_Node000003" class="edge">
<title>Node1&#45;&gt;Node3</title>
<g id="a_edge2_Node000001_Node000003"><a xlink:title=" ">
<path fill="none" stroke="#63b8ff" d="M137.79,-153.47C150.41,-157.8 163.72,-162.38 176.64,-166.81"/>
<polygon fill="#63b8ff" stroke="#63b8ff" points="175.35,-170.07 185.94,-170.01 177.62,-163.45 175.35,-170.07"/>
</a>
</g>
</g>
<!-- Node4 -->
<g id="Node000004" class="node">
<title>Node4</title>
<g id="a_Node000004"><a xlink:href="classdocument__processor_1_1_hybrid_document_processor.html#aa0b9d84a7970b5d138a1eebdd0f42dc2" target="_top" xlink:title="Cria chunks inteligentes usando LangChain para melhor preservação de contexto.">
<polygon fill="white" stroke="#666666" points="323,-153 184.75,-153 184.75,-109 323,-109 323,-153"/>
<text xml:space="preserve" text-anchor="start" x="192.75" y="-139.5" font-family="Helvetica,sans-Serif" font-size="10.00">document_processor.Hybrid</text>
<text xml:space="preserve" text-anchor="start" x="192.75" y="-127.5" font-family="Helvetica,sans-Serif" font-size="10.00">DocumentProcessor.create</text>
<text xml:space="preserve" text-anchor="middle" x="253.88" y="-115.5" font-family="Helvetica,sans-Serif" font-size="10.00">_smart_chunks</text>
</a>
</g>
</g>
<!-- Node1&#45;&gt;Node4 -->
<g id="edge3_Node000001_Node000004" class="edge">
<title>Node1&#45;&gt;Node4</title>
<g id="a_edge3_Node000001_Node000004"><a xlink:title=" ">
<path fill="none" stroke="#63b8ff" d="M143.2,-131C152.92,-131 162.96,-131 172.84,-131"/>
<polygon fill="#63b8ff" stroke="#63b8ff" points="172.81,-134.5 182.81,-131 172.81,-127.5 172.81,-134.5"/>
</a>
</g>
</g>
<!-- Node6 -->
<g id="Node000006" class="node">
<title>Node6</title>
<g id="a_Node000006"><a xlink:href="classdocument__processor_1_1_hybrid_document_processor.html#aad81b704a84a0ce339a2560228700c77" target="_top" xlink:title="Gera resumo do documento usando Groq LLM com fallback robusto.">
<polygon fill="white" stroke="#666666" points="510.75,-106 365,-106 365,-62 510.75,-62 510.75,-106"/>
<text xml:space="preserve" text-anchor="start" x="373" y="-92.5" font-family="Helvetica,sans-Serif" font-size="10.00">document_processor.Hybrid</text>
<text xml:space="preserve" text-anchor="start" x="373" y="-80.5" font-family="Helvetica,sans-Serif" font-size="10.00">DocumentProcessor.generate</text>
<text xml:space="preserve" text-anchor="middle" x="437.88" y="-68.5" font-family="Helvetica,sans-Serif" font-size="10.00">_document_summary</text>
</a>
</g>
</g>
<!-- Node1&#45;&gt;Node6 -->
<g id="edge5_Node000001_Node000006" class="edge">
<title>Node1&#45;&gt;Node6</title>
<g id="a_edge5_Node000001_Node000006"><a xlink:title=" ">
<path fill="none" stroke="#63b8ff" d="M141.09,-108.57C153.51,-105.21 166.43,-102.15 178.75,-100 236.53,-89.92 302.54,-85.96 353.35,-84.5"/>
<polygon fill="#63b8ff" stroke="#63b8ff" points="353.19,-88.01 363.09,-84.25 353.01,-81.01 353.19,-88.01"/>
</a>
</g>
</g>
<!-- Node7 -->
<g id="Node000007" class="node">
<title>Node7</title>
<g id="a_Node000007"><a xlink:href="classdocument__processor_1_1_hybrid_document_processor.html#a1d7a46a2add4076b7c6be452a5c37649" target="_top" xlink:title="Inserção otimizada no Pinecone com controle de qualidade.">
<polygon fill="white" stroke="#666666" points="329,-47 178.75,-47 178.75,-3 329,-3 329,-47"/>
<text xml:space="preserve" text-anchor="start" x="186.75" y="-33.5" font-family="Helvetica,sans-Serif" font-size="10.00">document_processor.Hybrid</text>
<text xml:space="preserve" text-anchor="start" x="186.75" y="-21.5" font-family="Helvetica,sans-Serif" font-size="10.00">DocumentProcessor.optimized</text>
<text xml:space="preserve" text-anchor="middle" x="253.88" y="-9.5" font-family="Helvetica,sans-Serif" font-size="10.00">_pinecone_insert</text>
</a>
</g>
</g>
<!-- Node1&#45;&gt;Node7 -->
<g id="edge7_Node000001_Node000007" class="edge">
<title>Node1&#45;&gt;Node7</title>
<g id="a_edge7_Node000001_Node000007"><a xlink:title=" ">
<path fill="none" stroke="#63b8ff" d="M109.16,-108.55C129.58,-96.16 155.49,-80.59 178.75,-67 186.56,-62.44 194.87,-57.66 202.99,-53.03"/>
<polygon fill="#63b8ff" stroke="#63b8ff" points="204.48,-56.21 211.44,-48.23 201.02,-50.12 204.48,-56.21"/>
</a>
</g>
</g>
<!-- Node5 -->
<g id="Node000005" class="node">
<title>Node5</title>
<g id="a_Node000005"><a xlink:href="classdocument__processor_1_1_hybrid_document_processor.html#a48464728a5412353a2f3e5b9c06e9ab0" target="_top" xlink:title="Chunking manual de backup com configurações otimizadas.">
<polygon fill="white" stroke="#666666" points="510.38,-168 365.38,-168 365.38,-124 510.38,-124 510.38,-168"/>
<text xml:space="preserve" text-anchor="start" x="373.38" y="-154.5" font-family="Helvetica,sans-Serif" font-size="10.00">document_processor.Hybrid</text>
<text xml:space="preserve" text-anchor="start" x="373.38" y="-142.5" font-family="Helvetica,sans-Serif" font-size="10.00">DocumentProcessor._manual</text>
<text xml:space="preserve" text-anchor="middle" x="437.88" y="-130.5" font-family="Helvetica,sans-Serif" font-size="10.00">_chunking</text>
</a>
</g>
</g>
<!-- Node4&#45;&gt;Node5 -->
<g id="edge4_Node000004_Node000005" class="edge">
<title>Node4&#45;&gt;Node5</title>
<g id="a_edge4_Node000004_Node000005"><a xlink:title=" ">
<path fill="none" stroke="#63b8ff" d="M323.42,-136.65C333.31,-137.46 343.57,-138.31 353.7,-139.14"/>
<polygon fill="#63b8ff" stroke="#63b8ff" points="353.29,-142.62 363.54,-139.96 353.86,-135.65 353.29,-142.62"/>
</a>
</g>
</g>
<!-- Node6&#45;&gt;Node2 -->
<g id="edge6_Node000006_Node000002" class="edge">
<title>Node6&#45;&gt;Node2</title>
<g id="a_edge6_Node000006_Node000002"><a xlink:title=" ">
<path fill="none" stroke="#63b8ff" d="M511.22,-84C518.97,-84 526.91,-84 534.8,-84"/>
<polygon fill="#63b8ff" stroke="#63b8ff" points="534.79,-87.5 544.79,-84 534.79,-80.5 534.79,-87.5"/>
</a>
</g>
</g>
<!-- Node8 -->
<g id="Node000008" class="node">
<title>Node8</title>
<g id="a_Node000008"><a xlink:href="classdocument__processor_1_1_hybrid_document_processor.html#a699cc06046cbda8e6a079960e3f35d08" target="_top" xlink:title="Extrai texto completo de um arquivo PDF.">
<polygon fill="white" stroke="#666666" points="507,-44 368.75,-44 368.75,0 507,0 507,-44"/>
<text xml:space="preserve" text-anchor="start" x="376.75" y="-30.5" font-family="Helvetica,sans-Serif" font-size="10.00">document_processor.Hybrid</text>
<text xml:space="preserve" text-anchor="start" x="376.75" y="-18.5" font-family="Helvetica,sans-Serif" font-size="10.00">DocumentProcessor.extract</text>
<text xml:space="preserve" text-anchor="middle" x="437.88" y="-6.5" font-family="Helvetica,sans-Serif" font-size="10.00">_text_from_pdf</text>
</a>
</g>
</g>
<!-- Node7&#45;&gt;Node8 -->
<g id="edge8_Node000007_Node000008" class="edge">
<title>Node7&#45;&gt;Node8</title>
<g id="a_edge8_Node000007_Node000008"><a xlink:title=" ">
<path fill="none" stroke="#63b8ff" d="M329.43,-23.77C338.47,-23.62 347.73,-23.47 356.85,-23.32"/>
<polygon fill="#63b8ff" stroke="#63b8ff" points="356.84,-26.82 366.78,-23.16 356.72,-19.82 356.84,-26.82"/>
</a>
</g>
</g>
<!-- Node8&#45;&gt;Node2 -->
<g id="edge9_Node000008_Node000002" class="edge">
<title>Node8&#45;&gt;Node2</title>
<g id="a_edge9_Node000008_Node000002"><a xlink:title=" ">
<path fill="none" stroke="#63b8ff" d="M504.97,-44.47C517.72,-48.8 531.17,-53.38 544.22,-57.81"/>
<polygon fill="#63b8ff" stroke="#63b8ff" points="543.04,-61.11 553.64,-61.01 545.3,-54.48 543.04,-61.11"/>
</a>
</g>
</g>
</g>
</svg>
