<?xml version="1.0" encoding="UTF-8" standalone="no"?>
<!DOCTYPE svg PUBLIC "-//W3C//DTD SVG 1.1//EN"
 "http://www.w3.org/Graphics/SVG/1.1/DTD/svg11.dtd">
<!-- Generated by graphviz version 13.0.1 (20250615.1724)
 -->
<!-- Title: document_processor.HybridDocumentProcessor._generate_fallback_summary Pages: 1 -->
<svg width="698pt" height="152pt"
 viewBox="0.00 0.00 698.00 152.00" xmlns="http://www.w3.org/2000/svg" xmlns:xlink="http://www.w3.org/1999/xlink">
<g id="graph0" class="graph" transform="scale(1 1) rotate(0) translate(4 148)">
<title>document_processor.HybridDocumentProcessor._generate_fallback_summary</title>
<!-- Node1 -->
<g id="Node000001" class="node">
<title>Node1</title>
<g id="a_Node000001"><a xlink:title="Gera resumo básico quando o Groq falha ou não está disponível.">
<polygon fill="#999999" stroke="#666666" points="690.25,-94 539.25,-94 539.25,-50 690.25,-50 690.25,-94"/>
<text xml:space="preserve" text-anchor="start" x="547.25" y="-80.5" font-family="Helvetica,sans-Serif" font-size="10.00">document_processor.Hybrid</text>
<text xml:space="preserve" text-anchor="start" x="547.25" y="-68.5" font-family="Helvetica,sans-Serif" font-size="10.00">DocumentProcessor._generate</text>
<text xml:space="preserve" text-anchor="middle" x="614.75" y="-56.5" font-family="Helvetica,sans-Serif" font-size="10.00">_fallback_summary</text>
</a>
</g>
</g>
<!-- Node2 -->
<g id="Node000002" class="node">
<title>Node2</title>
<g id="a_Node000002"><a xlink:href="classdocument__processor_1_1_hybrid_document_processor.html#a699cc06046cbda8e6a079960e3f35d08" target="_top" xlink:title="Extrai texto completo de um arquivo PDF.">
<polygon fill="white" stroke="#666666" points="503.25,-144 365,-144 365,-100 503.25,-100 503.25,-144"/>
<text xml:space="preserve" text-anchor="start" x="373" y="-130.5" font-family="Helvetica,sans-Serif" font-size="10.00">document_processor.Hybrid</text>
<text xml:space="preserve" text-anchor="start" x="373" y="-118.5" font-family="Helvetica,sans-Serif" font-size="10.00">DocumentProcessor.extract</text>
<text xml:space="preserve" text-anchor="middle" x="434.12" y="-106.5" font-family="Helvetica,sans-Serif" font-size="10.00">_text_from_pdf</text>
</a>
</g>
</g>
<!-- Node1&#45;&gt;Node2 -->
<g id="edge1_Node000001_Node000002" class="edge">
<title>Node1&#45;&gt;Node2</title>
<g id="a_edge1_Node000001_Node000002"><a xlink:title=" ">
<path fill="none" stroke="#63b8ff" d="M527.78,-96.06C519.68,-98.33 511.55,-100.61 503.65,-102.82"/>
<polygon fill="#63b8ff" stroke="#63b8ff" points="528.63,-99.46 537.32,-93.4 526.74,-92.72 528.63,-99.46"/>
</a>
</g>
</g>
<!-- Node4 -->
<g id="Node000004" class="node">
<title>Node4</title>
<g id="a_Node000004"><a xlink:href="classdocument__processor_1_1_hybrid_document_processor.html#aa270b12f462b4526db040aaef0b00a13" target="_top" xlink:title="Pipeline completo de processamento híbrido: extração, resumo, chunking e indexação.">
<polygon fill="white" stroke="#666666" points="142.75,-94 0,-94 0,-50 142.75,-50 142.75,-94"/>
<text xml:space="preserve" text-anchor="start" x="8" y="-80.5" font-family="Helvetica,sans-Serif" font-size="10.00">document_processor.Hybrid</text>
<text xml:space="preserve" text-anchor="start" x="8" y="-68.5" font-family="Helvetica,sans-Serif" font-size="10.00">DocumentProcessor.process</text>
<text xml:space="preserve" text-anchor="middle" x="71.38" y="-56.5" font-family="Helvetica,sans-Serif" font-size="10.00">_pdf_hybrid</text>
</a>
</g>
</g>
<!-- Node1&#45;&gt;Node4 -->
<g id="edge6_Node000001_Node000004" class="edge">
<title>Node1&#45;&gt;Node4</title>
<g id="a_edge6_Node000001_Node000004"><a xlink:title=" ">
<path fill="none" stroke="#63b8ff" d="M527.42,-72C420.96,-72 242.01,-72 143.22,-72"/>
<polygon fill="#63b8ff" stroke="#63b8ff" points="527.25,-75.5 537.24,-72 527.24,-68.5 527.25,-75.5"/>
</a>
</g>
</g>
<!-- Node5 -->
<g id="Node000005" class="node">
<title>Node5</title>
<g id="a_Node000005"><a xlink:href="classdocument__processor_1_1_hybrid_document_processor.html#aad81b704a84a0ce339a2560228700c77" target="_top" xlink:title="Gera resumo do documento usando Groq LLM com fallback robusto.">
<polygon fill="white" stroke="#666666" points="326.75,-44 181,-44 181,0 326.75,0 326.75,-44"/>
<text xml:space="preserve" text-anchor="start" x="189" y="-30.5" font-family="Helvetica,sans-Serif" font-size="10.00">document_processor.Hybrid</text>
<text xml:space="preserve" text-anchor="start" x="189" y="-18.5" font-family="Helvetica,sans-Serif" font-size="10.00">DocumentProcessor.generate</text>
<text xml:space="preserve" text-anchor="middle" x="253.88" y="-6.5" font-family="Helvetica,sans-Serif" font-size="10.00">_document_summary</text>
</a>
</g>
</g>
<!-- Node1&#45;&gt;Node5 -->
<g id="edge4_Node000001_Node000005" class="edge">
<title>Node1&#45;&gt;Node5</title>
<g id="a_edge4_Node000001_Node000005"><a xlink:title=" ">
<path fill="none" stroke="#63b8ff" d="M527.76,-60.02C466.48,-51.48 385.04,-40.14 327.12,-32.07"/>
<polygon fill="#63b8ff" stroke="#63b8ff" points="527.07,-63.46 537.46,-61.37 528.03,-56.52 527.07,-63.46"/>
</a>
</g>
</g>
<!-- Node3 -->
<g id="Node000003" class="node">
<title>Node3</title>
<g id="a_Node000003"><a xlink:href="classdocument__processor_1_1_hybrid_document_processor.html#a1d7a46a2add4076b7c6be452a5c37649" target="_top" xlink:title="Inserção otimizada no Pinecone com controle de qualidade.">
<polygon fill="white" stroke="#666666" points="329,-144 178.75,-144 178.75,-100 329,-100 329,-144"/>
<text xml:space="preserve" text-anchor="start" x="186.75" y="-130.5" font-family="Helvetica,sans-Serif" font-size="10.00">document_processor.Hybrid</text>
<text xml:space="preserve" text-anchor="start" x="186.75" y="-118.5" font-family="Helvetica,sans-Serif" font-size="10.00">DocumentProcessor.optimized</text>
<text xml:space="preserve" text-anchor="middle" x="253.88" y="-106.5" font-family="Helvetica,sans-Serif" font-size="10.00">_pinecone_insert</text>
</a>
</g>
</g>
<!-- Node2&#45;&gt;Node3 -->
<g id="edge2_Node000002_Node000003" class="edge">
<title>Node2&#45;&gt;Node3</title>
<g id="a_edge2_Node000002_Node000003"><a xlink:title=" ">
<path fill="none" stroke="#63b8ff" d="M353.46,-122C345.43,-122 337.3,-122 329.32,-122"/>
<polygon fill="#63b8ff" stroke="#63b8ff" points="353.21,-125.5 363.21,-122 353.21,-118.5 353.21,-125.5"/>
</a>
</g>
</g>
<!-- Node3&#45;&gt;Node4 -->
<g id="edge3_Node000003_Node000004" class="edge">
<title>Node3&#45;&gt;Node4</title>
<g id="a_edge3_Node000003_Node000004"><a xlink:title=" ">
<path fill="none" stroke="#63b8ff" d="M167.41,-98.33C159.3,-96.08 151.13,-93.82 143.18,-91.61"/>
<polygon fill="#63b8ff" stroke="#63b8ff" points="166.39,-101.67 176.96,-100.97 168.26,-94.93 166.39,-101.67"/>
</a>
</g>
</g>
<!-- Node5&#45;&gt;Node4 -->
<g id="edge5_Node000005_Node000004" class="edge">
<title>Node5&#45;&gt;Node4</title>
<g id="a_edge5_Node000005_Node000004"><a xlink:title=" ">
<path fill="none" stroke="#63b8ff" d="M169.93,-44.98C161,-47.45 151.97,-49.95 143.2,-52.38"/>
<polygon fill="#63b8ff" stroke="#63b8ff" points="170.6,-48.42 179.3,-42.38 168.73,-41.68 170.6,-48.42"/>
</a>
</g>
</g>
</g>
</svg>
