<?xml version="1.0" encoding="UTF-8" standalone="no"?>
<!DOCTYPE svg PUBLIC "-//W3C//DTD SVG 1.1//EN"
 "http://www.w3.org/Graphics/SVG/1.1/DTD/svg11.dtd">
<!-- Generated by graphviz version 13.0.1 (20250615.1724)
 -->
<!-- Title: Representação gráfica da hiearquia da classe Pages: 1 -->
<svg width="288pt" height="546pt"
 viewBox="0.00 0.00 288.00 546.00" xmlns="http://www.w3.org/2000/svg" xmlns:xlink="http://www.w3.org/1999/xlink">
<g id="graph0" class="graph" transform="scale(1 1) rotate(0) translate(4 542)">
<title>Representação gráfica da hiearquia da classe</title>
<!-- Node0 -->
<g id="Node000000" class="node">
<title>Node0</title>
<g id="a_Node000000"><a xlink:title=" ">
<polygon fill="#e0e0e0" stroke="#999999" points="64.75,-267 0,-267 0,-247 64.75,-247 64.75,-267"/>
<text xml:space="preserve" text-anchor="middle" x="32.38" y="-253.5" font-family="Helvetica,sans-Serif" font-size="10.00">BaseModel</text>
</a>
</g>
</g>
<!-- Node1 -->
<g id="Node000001" class="node">
<title>Node1</title>
<g id="a_Node000001"><a xlink:href="classadmin__management_1_1_admin_action.html" target="_top" xlink:title="Modelo para ações administrativas sobre usuários.">
<polygon fill="white" stroke="#666666" points="271.25,-538 109,-538 109,-518 271.25,-518 271.25,-538"/>
<text xml:space="preserve" text-anchor="middle" x="190.12" y="-524.5" font-family="Helvetica,sans-Serif" font-size="10.00">admin_management.AdminAction</text>
</a>
</g>
</g>
<!-- Node0&#45;&gt;Node1 -->
<g id="edge1_Node000000_Node000001" class="edge">
<title>Node0&#45;&gt;Node1</title>
<g id="a_edge1_Node000000_Node000001"><a xlink:title=" ">
<path fill="none" stroke="#63b8ff" d="M36.22,-278.44C43.93,-333.32 66.97,-476.85 100.75,-509 104.27,-512.35 108.24,-515.17 112.49,-517.54"/>
<polygon fill="#63b8ff" stroke="#63b8ff" points="39.73,-278.25 34.9,-268.82 32.79,-279.2 39.73,-278.25"/>
</a>
</g>
</g>
<!-- Node2 -->
<g id="Node000002" class="node">
<title>Node2</title>
<g id="a_Node000002"><a xlink:href="classadmin__management_1_1_admin_promotion.html" target="_top" xlink:title="Modelo para dados de promoção de usuário a administrador.">
<polygon fill="white" stroke="#666666" points="279.5,-500 100.75,-500 100.75,-480 279.5,-480 279.5,-500"/>
<text xml:space="preserve" text-anchor="middle" x="190.12" y="-486.5" font-family="Helvetica,sans-Serif" font-size="10.00">admin_management.AdminPromotion</text>
</a>
</g>
</g>
<!-- Node0&#45;&gt;Node2 -->
<g id="edge2_Node000000_Node000002" class="edge">
<title>Node0&#45;&gt;Node2</title>
<g id="a_edge2_Node000000_Node000002"><a xlink:title=" ">
<path fill="none" stroke="#63b8ff" d="M33.46,-278.77C34.87,-322.2 44.52,-419.78 100.75,-471 104.46,-474.38 108.63,-477.21 113.07,-479.58"/>
<polygon fill="#63b8ff" stroke="#63b8ff" points="36.96,-278.81 33.27,-268.88 29.96,-278.95 36.96,-278.81"/>
</a>
</g>
</g>
<!-- Node3 -->
<g id="Node000003" class="node">
<title>Node3</title>
<g id="a_Node000003"><a xlink:href="classadmin__management_1_1_admin_user.html" target="_top" xlink:title="Modelo para representar dados de um usuário administrador.">
<polygon fill="white" stroke="#666666" points="267.88,-462 112.38,-462 112.38,-442 267.88,-442 267.88,-462"/>
<text xml:space="preserve" text-anchor="middle" x="190.12" y="-448.5" font-family="Helvetica,sans-Serif" font-size="10.00">admin_management.AdminUser</text>
</a>
</g>
</g>
<!-- Node0&#45;&gt;Node3 -->
<g id="edge3_Node000000_Node000003" class="edge">
<title>Node0&#45;&gt;Node3</title>
<g id="a_edge3_Node000000_Node000003"><a xlink:title=" ">
<path fill="none" stroke="#63b8ff" d="M35.12,-278.25C39.36,-315.54 53.65,-392.64 100.75,-433 104.68,-436.37 109.07,-439.19 113.73,-441.54"/>
<polygon fill="#63b8ff" stroke="#63b8ff" points="38.64,-278.35 34.18,-268.75 31.68,-279.04 38.64,-278.35"/>
</a>
</g>
</g>
<!-- Node4 -->
<g id="Node000004" class="node">
<title>Node4</title>
<g id="a_Node000004"><a xlink:href="classadmin__requests_1_1_admin_request.html" target="_top" xlink:title="Modelo para representar uma solicitação de privilégios administrativos.">
<polygon fill="white" stroke="#666666" points="266.38,-424 113.88,-424 113.88,-404 266.38,-404 266.38,-424"/>
<text xml:space="preserve" text-anchor="middle" x="190.12" y="-410.5" font-family="Helvetica,sans-Serif" font-size="10.00">admin_requests.AdminRequest</text>
</a>
</g>
</g>
<!-- Node0&#45;&gt;Node4 -->
<g id="edge4_Node000000_Node000004" class="edge">
<title>Node0&#45;&gt;Node4</title>
<g id="a_edge4_Node000000_Node000004"><a xlink:title=" ">
<path fill="none" stroke="#63b8ff" d="M37.65,-278.35C44.97,-309.1 62.92,-365.39 100.75,-395 105.08,-398.39 109.87,-401.2 114.92,-403.54"/>
<polygon fill="#63b8ff" stroke="#63b8ff" points="41.1,-277.73 35.53,-268.72 34.26,-279.23 41.1,-277.73"/>
</a>
</g>
</g>
<!-- Node5 -->
<g id="Node000005" class="node">
<title>Node5</title>
<g id="a_Node000005"><a xlink:href="classadmin__requests_1_1_create_admin_request.html" target="_top" xlink:title="Modelo para dados de criação de solicitação administrativa.">
<polygon fill="white" stroke="#666666" points="262.62,-386 117.62,-386 117.62,-354 262.62,-354 262.62,-386"/>
<text xml:space="preserve" text-anchor="start" x="125.62" y="-372.5" font-family="Helvetica,sans-Serif" font-size="10.00">admin_requests.CreateAdmin</text>
<text xml:space="preserve" text-anchor="middle" x="190.12" y="-360.5" font-family="Helvetica,sans-Serif" font-size="10.00">Request</text>
</a>
</g>
</g>
<!-- Node0&#45;&gt;Node5 -->
<g id="edge5_Node000000_Node000005" class="edge">
<title>Node0&#45;&gt;Node5</title>
<g id="a_edge5_Node000000_Node000005"><a xlink:title=" ">
<path fill="none" stroke="#63b8ff" d="M43.88,-277.43C55.25,-297.54 75.23,-327.67 100.75,-345 105.89,-348.49 111.52,-351.5 117.37,-354.09"/>
<polygon fill="#63b8ff" stroke="#63b8ff" points="47.03,-275.89 39.19,-268.77 40.87,-279.23 47.03,-275.89"/>
</a>
</g>
</g>
<!-- Node6 -->
<g id="Node000006" class="node">
<title>Node6</title>
<g id="a_Node000006"><a xlink:href="classadmin__requests_1_1_review_admin_request.html" target="_top" xlink:title="Modelo para dados de revisão de solicitação administrativa.">
<polygon fill="white" stroke="#666666" points="264.5,-336 115.75,-336 115.75,-304 264.5,-304 264.5,-336"/>
<text xml:space="preserve" text-anchor="start" x="123.75" y="-322.5" font-family="Helvetica,sans-Serif" font-size="10.00">admin_requests.ReviewAdmin</text>
<text xml:space="preserve" text-anchor="middle" x="190.12" y="-310.5" font-family="Helvetica,sans-Serif" font-size="10.00">Request</text>
</a>
</g>
</g>
<!-- Node0&#45;&gt;Node6 -->
<g id="edge6_Node000000_Node000006" class="edge">
<title>Node0&#45;&gt;Node6</title>
<g id="a_edge6_Node000000_Node000006"><a xlink:title=" ">
<path fill="none" stroke="#63b8ff" d="M58.75,-273.21C71.08,-280.59 86.32,-288.99 100.75,-295 108.26,-298.13 116.28,-301 124.32,-303.6"/>
<polygon fill="#63b8ff" stroke="#63b8ff" points="60.81,-270.37 50.46,-268.13 57.15,-276.34 60.81,-270.37"/>
</a>
</g>
</g>
<!-- Node7 -->
<g id="Node000007" class="node">
<title>Node7</title>
<g id="a_Node000007"><a xlink:href="classchat_1_1_chat_request.html" target="_top" xlink:title="Modelo de dados para requisições de chat.">
<polygon fill="white" stroke="#666666" points="237.88,-286 142.38,-286 142.38,-266 237.88,-266 237.88,-286"/>
<text xml:space="preserve" text-anchor="middle" x="190.12" y="-272.5" font-family="Helvetica,sans-Serif" font-size="10.00">chat.ChatRequest</text>
</a>
</g>
</g>
<!-- Node0&#45;&gt;Node7 -->
<g id="edge7_Node000000_Node000007" class="edge">
<title>Node0&#45;&gt;Node7</title>
<g id="a_edge7_Node000000_Node000007"><a xlink:title=" ">
<path fill="none" stroke="#63b8ff" d="M76.08,-262.21C96.5,-264.7 121.01,-267.69 141.98,-270.25"/>
<polygon fill="#63b8ff" stroke="#63b8ff" points="76.75,-258.76 66.4,-261.03 75.9,-265.71 76.75,-258.76"/>
</a>
</g>
</g>
<!-- Node8 -->
<g id="Node000008" class="node">
<title>Node8</title>
<g id="a_Node000008"><a xlink:href="classhistory_1_1_chat_entry.html" target="_top" xlink:title="Modelo para uma entrada de conversa no histórico.">
<polygon fill="white" stroke="#666666" points="236,-248 144.25,-248 144.25,-228 236,-228 236,-248"/>
<text xml:space="preserve" text-anchor="middle" x="190.12" y="-234.5" font-family="Helvetica,sans-Serif" font-size="10.00">history.ChatEntry</text>
</a>
</g>
</g>
<!-- Node0&#45;&gt;Node8 -->
<g id="edge8_Node000000_Node000008" class="edge">
<title>Node0&#45;&gt;Node8</title>
<g id="a_edge8_Node000000_Node000008"><a xlink:title=" ">
<path fill="none" stroke="#63b8ff" d="M76.07,-251.79C97.08,-249.23 122.42,-246.14 143.78,-243.53"/>
<polygon fill="#63b8ff" stroke="#63b8ff" points="75.9,-248.29 66.4,-252.97 76.75,-255.24 75.9,-248.29"/>
</a>
</g>
</g>
<!-- Node9 -->
<g id="Node000009" class="node">
<title>Node9</title>
<g id="a_Node000009"><a xlink:href="classhistory_1_1_save_chat_request.html" target="_top" xlink:title="Modelo para requisição de salvamento manual de conversa.">
<polygon fill="white" stroke="#666666" points="254,-210 126.25,-210 126.25,-190 254,-190 254,-210"/>
<text xml:space="preserve" text-anchor="middle" x="190.12" y="-196.5" font-family="Helvetica,sans-Serif" font-size="10.00">history.SaveChatRequest</text>
</a>
</g>
</g>
<!-- Node0&#45;&gt;Node9 -->
<g id="edge9_Node000000_Node000009" class="edge">
<title>Node0&#45;&gt;Node9</title>
<g id="a_edge9_Node000000_Node000009"><a xlink:title=" ">
<path fill="none" stroke="#63b8ff" d="M58.34,-240.52C70.68,-233.02 86.04,-224.58 100.75,-219 109.55,-215.66 119.09,-212.84 128.52,-210.48"/>
<polygon fill="#63b8ff" stroke="#63b8ff" points="56.67,-237.44 50.06,-245.72 60.39,-243.37 56.67,-237.44"/>
</a>
</g>
</g>
<!-- Node10 -->
<g id="Node000010" class="node">
<title>Node10</title>
<g id="a_Node000010"><a xlink:href="classlogin_1_1_google_login_request.html" target="_top" xlink:title="Modelo para requisição de login com Google OAuth.">
<polygon fill="white" stroke="#666666" points="255.12,-172 125.12,-172 125.12,-152 255.12,-152 255.12,-172"/>
<text xml:space="preserve" text-anchor="middle" x="190.12" y="-158.5" font-family="Helvetica,sans-Serif" font-size="10.00">login.GoogleLoginRequest</text>
</a>
</g>
</g>
<!-- Node0&#45;&gt;Node10 -->
<g id="edge10_Node000000_Node000010" class="edge">
<title>Node0&#45;&gt;Node10</title>
<g id="a_edge10_Node000000_Node000010"><a xlink:title=" ">
<path fill="none" stroke="#63b8ff" d="M45.62,-237.16C57.52,-219.62 77.2,-194.75 100.75,-181 108.2,-176.65 116.53,-173.29 125.02,-170.69"/>
<polygon fill="#63b8ff" stroke="#63b8ff" points="42.89,-234.94 40.37,-245.23 48.76,-238.76 42.89,-234.94"/>
</a>
</g>
</g>
<!-- Node11 -->
<g id="Node000011" class="node">
<title>Node11</title>
<g id="a_Node000011"><a xlink:href="classlogin_1_1_token.html" target="_top" xlink:title="Modelo para resposta de token de autenticação.">
<polygon fill="white" stroke="#666666" points="222.88,-134 157.38,-134 157.38,-114 222.88,-114 222.88,-134"/>
<text xml:space="preserve" text-anchor="middle" x="190.12" y="-120.5" font-family="Helvetica,sans-Serif" font-size="10.00">login.Token</text>
</a>
</g>
</g>
<!-- Node0&#45;&gt;Node11 -->
<g id="edge11_Node000000_Node000011" class="edge">
<title>Node0&#45;&gt;Node11</title>
<g id="a_edge11_Node000000_Node000011"><a xlink:title=" ">
<path fill="none" stroke="#63b8ff" d="M39.92,-235.96C49.15,-209.92 68.56,-166.19 100.75,-143 117.05,-131.26 139.14,-126.51 157.16,-124.69"/>
<polygon fill="#63b8ff" stroke="#63b8ff" points="36.72,-234.51 36.87,-245.1 43.36,-236.73 36.72,-234.51"/>
</a>
</g>
</g>
<!-- Node12 -->
<g id="Node000012" class="node">
<title>Node12</title>
<g id="a_Node000012"><a xlink:href="classlogin_1_1_token_data.html" target="_top" xlink:title="Modelo para dados extraídos do token JWT.">
<polygon fill="white" stroke="#666666" points="233.38,-96 146.88,-96 146.88,-76 233.38,-76 233.38,-96"/>
<text xml:space="preserve" text-anchor="middle" x="190.12" y="-82.5" font-family="Helvetica,sans-Serif" font-size="10.00">login.TokenData</text>
</a>
</g>
</g>
<!-- Node0&#45;&gt;Node12 -->
<g id="edge12_Node000000_Node000012" class="edge">
<title>Node0&#45;&gt;Node12</title>
<g id="a_edge12_Node000000_Node000012"><a xlink:title=" ">
<path fill="none" stroke="#63b8ff" d="M36.63,-235.4C42.85,-202.06 59.64,-138.42 100.75,-105 113.54,-94.6 130.7,-89.54 146.5,-87.18"/>
<polygon fill="#63b8ff" stroke="#63b8ff" points="33.21,-234.63 34.99,-245.08 40.11,-235.8 33.21,-234.63"/>
</a>
</g>
</g>
<!-- Node13 -->
<g id="Node000013" class="node">
<title>Node13</title>
<g id="a_Node000013"><a xlink:href="classlogin_1_1_user_create.html" target="_top" xlink:title="Modelo para criação de novos usuários.">
<polygon fill="white" stroke="#666666" points="234.88,-58 145.38,-58 145.38,-38 234.88,-38 234.88,-58"/>
<text xml:space="preserve" text-anchor="middle" x="190.12" y="-44.5" font-family="Helvetica,sans-Serif" font-size="10.00">login.UserCreate</text>
</a>
</g>
</g>
<!-- Node0&#45;&gt;Node13 -->
<g id="edge13_Node000000_Node000013" class="edge">
<title>Node0&#45;&gt;Node13</title>
<g id="a_edge13_Node000000_Node000013"><a xlink:title=" ">
<path fill="none" stroke="#63b8ff" d="M34.45,-235.49C37.64,-195.86 50.33,-111.3 100.75,-67 112.89,-56.33 129.57,-51.17 145.17,-48.81"/>
<polygon fill="#63b8ff" stroke="#63b8ff" points="30.96,-235.17 33.8,-245.37 37.95,-235.62 30.96,-235.17"/>
</a>
</g>
</g>
<!-- Node14 -->
<g id="Node000014" class="node">
<title>Node14</title>
<g id="a_Node000014"><a xlink:href="classlogin_1_1_user_response.html" target="_top" xlink:title="Modelo para resposta com dados do usuário.">
<polygon fill="white" stroke="#666666" points="242.38,-20 137.88,-20 137.88,0 242.38,0 242.38,-20"/>
<text xml:space="preserve" text-anchor="middle" x="190.12" y="-6.5" font-family="Helvetica,sans-Serif" font-size="10.00">login.UserResponse</text>
</a>
</g>
</g>
<!-- Node0&#45;&gt;Node14 -->
<g id="edge14_Node000000_Node000014" class="edge">
<title>Node0&#45;&gt;Node14</title>
<g id="a_edge14_Node000000_Node000014"><a xlink:title=" ">
<path fill="none" stroke="#63b8ff" d="M32.95,-235.7C33.3,-190.49 40.84,-84.54 100.75,-29 110.76,-19.72 124.18,-14.55 137.52,-11.77"/>
<polygon fill="#63b8ff" stroke="#63b8ff" points="29.45,-235.48 33.01,-245.46 36.45,-235.44 29.45,-235.48"/>
</a>
</g>
</g>
</g>
</svg>
